<mxfile host="Electron" agent="Mozilla/5.0 (Windows NT 10.0; Win64; x64) AppleWebKit/537.36 (KHTML, like Gecko) draw.io/24.7.17 Chrome/128.0.6613.36 Electron/32.0.1 Safari/537.36" version="24.7.17">
  <diagram name="Page-1" id="m0YMMgs0qumU_EXA1pG8">
    <mxGraphModel dx="1547" dy="1463" grid="1" gridSize="10" guides="1" tooltips="1" connect="1" arrows="1" fold="1" page="1" pageScale="1" pageWidth="1000" pageHeight="1000" math="0" shadow="0">
      <root>
        <mxCell id="0" />
        <mxCell id="1" parent="0" />
        <mxCell id="pJBAExDUtUWwg_mxxa-6-7" value="" style="verticalLabelPosition=bottom;html=1;verticalAlign=top;align=center;strokeColor=none;fillColor=#000000;shape=mxgraph.azure.server_rack;" vertex="1" parent="1">
          <mxGeometry x="200" y="40" width="50" height="50" as="geometry" />
        </mxCell>
        <mxCell id="pJBAExDUtUWwg_mxxa-6-8" value="&lt;b style=&quot;font-size: 18px;&quot;&gt;&lt;font style=&quot;font-size: 18px;&quot;&gt;K8s Cluster&lt;/font&gt;&lt;/b&gt;" style="text;html=1;align=center;verticalAlign=middle;whiteSpace=wrap;rounded=0;fontSize=18;" vertex="1" parent="1">
          <mxGeometry x="40" y="50" width="60" height="30" as="geometry" />
        </mxCell>
        <mxCell id="pJBAExDUtUWwg_mxxa-6-9" value="&lt;b&gt;&lt;font style=&quot;font-size: 14px;&quot;&gt;Master Server&lt;/font&gt;&lt;/b&gt;&lt;div&gt;&lt;font style=&quot;font-size: 12px;&quot;&gt;- Kubernetes API Server&lt;/font&gt;&lt;/div&gt;&lt;div&gt;&lt;font style=&quot;font-size: 12px;&quot;&gt;- Scheduler&lt;/font&gt;&lt;/div&gt;&lt;div&gt;&lt;font style=&quot;font-size: 12px;&quot;&gt;- Controller Manager&lt;/font&gt;&lt;/div&gt;&lt;div&gt;&lt;font style=&quot;font-size: 12px;&quot;&gt;- etcd&lt;/font&gt;&lt;/div&gt;" style="text;html=1;align=left;verticalAlign=top;whiteSpace=wrap;rounded=0;" vertex="1" parent="1">
          <mxGeometry x="270" y="20" width="170" height="90" as="geometry" />
        </mxCell>
        <mxCell id="pJBAExDUtUWwg_mxxa-6-24" value="" style="group" vertex="1" connectable="0" parent="1">
          <mxGeometry x="40" y="120" width="100" height="120" as="geometry" />
        </mxCell>
        <mxCell id="pJBAExDUtUWwg_mxxa-6-17" value="" style="rounded=0;whiteSpace=wrap;html=1;fontStyle=1;strokeWidth=3.1496;" vertex="1" parent="pJBAExDUtUWwg_mxxa-6-24">
          <mxGeometry width="100" height="120" as="geometry" />
        </mxCell>
        <mxCell id="pJBAExDUtUWwg_mxxa-6-11" value="Kubelet" style="rounded=0;whiteSpace=wrap;html=1;fontStyle=1;strokeWidth=1.1811;" vertex="1" parent="pJBAExDUtUWwg_mxxa-6-24">
          <mxGeometry x="10" y="10" width="80" height="20" as="geometry" />
        </mxCell>
        <mxCell id="pJBAExDUtUWwg_mxxa-6-13" value="Kube-Proxy" style="rounded=0;whiteSpace=wrap;html=1;fontStyle=1;strokeWidth=1.1811;" vertex="1" parent="pJBAExDUtUWwg_mxxa-6-24">
          <mxGeometry x="10" y="30" width="80" height="20" as="geometry" />
        </mxCell>
        <mxCell id="pJBAExDUtUWwg_mxxa-6-14" value="Docker" style="rounded=0;whiteSpace=wrap;html=1;fontStyle=1;strokeWidth=1.1811;" vertex="1" parent="pJBAExDUtUWwg_mxxa-6-24">
          <mxGeometry x="10" y="50" width="80" height="20" as="geometry" />
        </mxCell>
        <mxCell id="pJBAExDUtUWwg_mxxa-6-15" value="OS" style="rounded=0;whiteSpace=wrap;html=1;fontStyle=1;strokeWidth=1.1811;" vertex="1" parent="pJBAExDUtUWwg_mxxa-6-24">
          <mxGeometry x="10" y="70" width="80" height="20" as="geometry" />
        </mxCell>
        <mxCell id="pJBAExDUtUWwg_mxxa-6-16" value="Hardware" style="rounded=0;whiteSpace=wrap;html=1;fontStyle=1;strokeWidth=1.1811;" vertex="1" parent="pJBAExDUtUWwg_mxxa-6-24">
          <mxGeometry x="10" y="90" width="80" height="20" as="geometry" />
        </mxCell>
        <mxCell id="pJBAExDUtUWwg_mxxa-6-25" value="" style="group" vertex="1" connectable="0" parent="1">
          <mxGeometry x="160" y="120" width="100" height="120" as="geometry" />
        </mxCell>
        <mxCell id="pJBAExDUtUWwg_mxxa-6-26" value="" style="rounded=0;whiteSpace=wrap;html=1;fontStyle=1;strokeWidth=3.1496;" vertex="1" parent="pJBAExDUtUWwg_mxxa-6-25">
          <mxGeometry width="100" height="120" as="geometry" />
        </mxCell>
        <mxCell id="pJBAExDUtUWwg_mxxa-6-27" value="Kubelet" style="rounded=0;whiteSpace=wrap;html=1;fontStyle=1;strokeWidth=1.1811;" vertex="1" parent="pJBAExDUtUWwg_mxxa-6-25">
          <mxGeometry x="10" y="10" width="80" height="20" as="geometry" />
        </mxCell>
        <mxCell id="pJBAExDUtUWwg_mxxa-6-28" value="Kube-Proxy" style="rounded=0;whiteSpace=wrap;html=1;fontStyle=1;strokeWidth=1.1811;" vertex="1" parent="pJBAExDUtUWwg_mxxa-6-25">
          <mxGeometry x="10" y="30" width="80" height="20" as="geometry" />
        </mxCell>
        <mxCell id="pJBAExDUtUWwg_mxxa-6-29" value="Docker" style="rounded=0;whiteSpace=wrap;html=1;fontStyle=1;strokeWidth=1.1811;" vertex="1" parent="pJBAExDUtUWwg_mxxa-6-25">
          <mxGeometry x="10" y="50" width="80" height="20" as="geometry" />
        </mxCell>
        <mxCell id="pJBAExDUtUWwg_mxxa-6-30" value="OS" style="rounded=0;whiteSpace=wrap;html=1;fontStyle=1;strokeWidth=1.1811;" vertex="1" parent="pJBAExDUtUWwg_mxxa-6-25">
          <mxGeometry x="10" y="70" width="80" height="20" as="geometry" />
        </mxCell>
        <mxCell id="pJBAExDUtUWwg_mxxa-6-31" value="Hardware" style="rounded=0;whiteSpace=wrap;html=1;fontStyle=1;strokeWidth=1.1811;" vertex="1" parent="pJBAExDUtUWwg_mxxa-6-25">
          <mxGeometry x="10" y="90" width="80" height="20" as="geometry" />
        </mxCell>
        <mxCell id="pJBAExDUtUWwg_mxxa-6-33" value="" style="group" vertex="1" connectable="0" parent="1">
          <mxGeometry x="280" y="120" width="100" height="120" as="geometry" />
        </mxCell>
        <mxCell id="pJBAExDUtUWwg_mxxa-6-34" value="" style="rounded=0;whiteSpace=wrap;html=1;fontStyle=1;strokeWidth=3.1496;" vertex="1" parent="pJBAExDUtUWwg_mxxa-6-33">
          <mxGeometry width="100" height="120" as="geometry" />
        </mxCell>
        <mxCell id="pJBAExDUtUWwg_mxxa-6-35" value="Kubelet" style="rounded=0;whiteSpace=wrap;html=1;fontStyle=1;strokeWidth=1.1811;" vertex="1" parent="pJBAExDUtUWwg_mxxa-6-33">
          <mxGeometry x="10" y="10" width="80" height="20" as="geometry" />
        </mxCell>
        <mxCell id="pJBAExDUtUWwg_mxxa-6-36" value="Kube-Proxy" style="rounded=0;whiteSpace=wrap;html=1;fontStyle=1;strokeWidth=1.1811;" vertex="1" parent="pJBAExDUtUWwg_mxxa-6-33">
          <mxGeometry x="10" y="30" width="80" height="20" as="geometry" />
        </mxCell>
        <mxCell id="pJBAExDUtUWwg_mxxa-6-37" value="Docker" style="rounded=0;whiteSpace=wrap;html=1;fontStyle=1;strokeWidth=1.1811;" vertex="1" parent="pJBAExDUtUWwg_mxxa-6-33">
          <mxGeometry x="10" y="50" width="80" height="20" as="geometry" />
        </mxCell>
        <mxCell id="pJBAExDUtUWwg_mxxa-6-38" value="OS" style="rounded=0;whiteSpace=wrap;html=1;fontStyle=1;strokeWidth=1.1811;" vertex="1" parent="pJBAExDUtUWwg_mxxa-6-33">
          <mxGeometry x="10" y="70" width="80" height="20" as="geometry" />
        </mxCell>
        <mxCell id="pJBAExDUtUWwg_mxxa-6-39" value="Hardware" style="rounded=0;whiteSpace=wrap;html=1;fontStyle=1;strokeWidth=1.1811;" vertex="1" parent="pJBAExDUtUWwg_mxxa-6-33">
          <mxGeometry x="10" y="90" width="80" height="20" as="geometry" />
        </mxCell>
        <mxCell id="pJBAExDUtUWwg_mxxa-6-40" value="&lt;b&gt;&lt;font style=&quot;font-size: 14px;&quot;&gt;Worker&lt;br&gt;Nodes&lt;/font&gt;&lt;/b&gt;" style="text;html=1;align=left;verticalAlign=top;whiteSpace=wrap;rounded=0;" vertex="1" parent="1">
          <mxGeometry x="400" y="120" width="75" height="50" as="geometry" />
        </mxCell>
      </root>
    </mxGraphModel>
  </diagram>
</mxfile>
